# xmcd
#
# Track frame offsets: 
#        150
#        18010
#        33906
#        55423
#        84592
#        108763
#        123216
#        144082
#        171608
#        185636
#        206638
#        228652
#        248456
#        267107
#        287409
#        307116
#        330041
#
# Disc length: 4790 seconds
#
# Revision: 0
# Processed by: cddbd v1.5.2PL0 Copyright (c) Steve Scherf et al.
# Submitted via: ExactAudioCopy v1.3
#
DISCID=dd12b411
DTITLE=Various Artist - Akella Presents - vol. 157 - Rockin' Blues and 
DTITLE=Boogie Rock  CD2
DYEAR=2018
DGENRE=Blues
TTITLE0=Richard Van Bergen - Rock me right
TTITLE1=The Alabama Lovesnakes - Damn, Amsterdam!
TTITLE2=Zed Mitchell - You Are Not Alone
TTITLE3=Russ Green - Goin' Down South
TTITLE4=David Lumsden and Friends - You Got To Lose
TTITLE5=Richard Van Bergen - Walk on in
TTITLE6=Ron Spencer Band - Cadillac Walk
TTITLE7=Marcus Lazarus - Keep My Flame Alight
TTITLE8=James House and The Blues Cowboys - Boomerang
TTITLE9=RoosterHouse Gumbo Band - Steps To The Moon
TTITLE10=Albert Cummings - Rumors
TTITLE11=Wentus Blues Band - Fixin' To Die
TTITLE12=Ghost Riders - I Pity The Fool
TTITLE13=Ty Curtis Band - I Lit A Fire
TTITLE14=The Beat Daddys - Common Ground
TTITLE15=Canned Heat - John Lee Hooker Boogie
TTITLE16=Colin James - Dig Myself A Hole
EXTD=
EXTT0=
EXTT1=
EXTT2=
EXTT3=
EXTT4=
EXTT5=
EXTT6=
EXTT7=
EXTT8=
EXTT9=
EXTT10=
EXTT11=
EXTT12=
EXTT13=
EXTT14=
EXTT15=
EXTT16=
PLAYORDER=
